<svg width="16" height="16" viewBox="0 0 16 16" fill="none" xmlns="http://www.w3.org/2000/svg">
<path d="M4.85252 0H9.97827L14.5421 0.0491758C14.9283 0.051071 15.2982 0.233723 15.5712 0.557353C15.8443 0.880983 15.9984 1.31938 16 1.77705L15.9932 6.4623V11.0545C15.9932 11.3477 15.8865 11.6289 15.6966 11.8362C15.5067 12.0435 15.2491 12.16 14.9804 12.16H13.6599V9.3423L13.6667 4.65705C13.6651 4.19938 13.511 3.76098 13.2379 3.43735C12.9648 3.11372 12.5949 2.93107 12.2088 2.92918L7.64494 2.88H3.33333V1.65818C3.335 1.21896 3.49559 0.798256 3.78013 0.48768C4.06468 0.177104 4.45012 0.00181873 4.85252 0Z" fill="#0A84FF"/>
<path d="M6.64494 3.84H1.51919C1.11679 3.84182 0.731344 4.0171 0.446801 4.32768C0.162258 4.63826 0.00166628 5.05896 0 5.49818V14.3418C0.00166628 14.781 0.162258 15.2017 0.446801 15.5123C0.731344 15.8229 1.11679 15.9982 1.51919 16H11.6471C11.9157 16 12.1733 15.8835 12.3633 15.6762C12.5532 15.4689 12.6599 15.1877 12.6599 14.8945V10.3023L12.6667 5.61705C12.6651 5.15937 12.511 4.72098 12.2379 4.39735C11.9648 4.07372 11.5949 3.89107 11.2088 3.88918L6.64494 3.84Z" fill="#0A84FF"/>
</svg>
