<svg width="12" height="16" viewBox="0 0 12 16" fill="none" xmlns="http://www.w3.org/2000/svg">
<path d="M9.50015 1.3245C8.8678 0.774409 8.12731 0.380573 7.33272 0.171723C6.53813 -0.0371266 5.70948 -0.0557218 4.90724 0.117294C3.83902 0.345515 2.85898 0.904211 2.09145 1.72249C1.32392 2.54078 0.803499 3.58177 0.596219 4.71339C0.44485 5.56186 0.472356 6.43521 0.676775 7.27115C0.881194 8.10709 1.25749 8.88503 1.77883 9.54947C2.26265 10.1269 2.53998 10.8654 2.56265 11.6366V13.8183C2.56265 14.3969 2.77997 14.9519 3.16679 15.361C3.55362 15.7701 4.07828 16 4.62533 16H7.37558C7.92264 16 8.4473 15.7701 8.83413 15.361C9.22095 14.9519 9.43827 14.3969 9.43827 13.8183V11.7748C9.46135 10.9233 9.7571 10.1054 10.2771 9.45493C11.1882 8.26284 11.6177 6.73859 11.4722 5.21345C11.3267 3.68831 10.618 2.28552 9.50015 1.30995V1.3245ZM8.06315 13.8183C8.06315 14.0112 7.99071 14.1962 7.86176 14.3325C7.73282 14.4689 7.55794 14.5455 7.37558 14.5455H4.62533C4.44298 14.5455 4.2681 14.4689 4.13915 14.3325C4.01021 14.1962 3.93777 14.0112 3.93777 13.8183V13.0911H8.06315V13.8183ZM9.21138 8.55316C8.52004 9.42046 8.11668 10.5036 8.06315 11.6366H6.68802V9.45493C6.68802 9.26206 6.61558 9.07708 6.48664 8.9407C6.3577 8.80432 6.18281 8.7277 6.00046 8.7277C5.81811 8.7277 5.64322 8.80432 5.51428 8.9407C5.38534 9.07708 5.3129 9.26206 5.3129 9.45493V11.6366H3.93777C3.91963 10.5226 3.53001 9.45112 2.83767 8.61134C2.38088 8.03247 2.07372 7.33827 1.94612 6.59644C1.81852 5.85461 1.87484 5.09047 2.1096 4.37852C2.34436 3.66657 2.74954 3.03112 3.28563 2.53412C3.82173 2.03712 4.47044 1.69553 5.16851 1.54267C5.76844 1.41201 6.38836 1.4243 6.98324 1.57864C7.57812 1.73298 8.13305 2.02549 8.60773 2.43494C9.08241 2.84439 9.46493 3.36051 9.72752 3.94581C9.9901 4.53112 10.1262 5.17092 10.1258 5.81878C10.1309 6.81498 9.80756 7.78191 9.21138 8.55316Z" fill="#0A84FF"/>
</svg>
