<svg width="14" height="14" viewBox="0 0 14 14" fill="none" xmlns="http://www.w3.org/2000/svg">
<path d="M7 0.5C5.33365 0.504753 3.73277 1.14929 2.528 2.3005V1.15C2.528 0.977609 2.45952 0.812279 2.33762 0.69038C2.21572 0.568482 2.05039 0.5 1.878 0.5C1.70561 0.5 1.54028 0.568482 1.41838 0.69038C1.29648 0.812279 1.228 0.977609 1.228 1.15V4.075C1.228 4.24739 1.29648 4.41272 1.41838 4.53462C1.54028 4.65652 1.70561 4.725 1.878 4.725H4.803C4.97539 4.725 5.14072 4.65652 5.26262 4.53462C5.38452 4.41272 5.453 4.24739 5.453 4.075C5.453 3.90261 5.38452 3.73728 5.26262 3.61538C5.14072 3.49348 4.97539 3.425 4.803 3.425H3.243C4.07875 2.55163 5.19268 1.99673 6.39325 1.85568C7.59381 1.71464 8.80601 1.99628 9.82142 2.65218C10.8368 3.30807 11.592 4.29724 11.9571 5.44961C12.3222 6.60198 12.2744 7.84555 11.822 8.96651C11.3695 10.0875 10.5406 11.0158 9.4779 11.5918C8.41515 12.1678 7.18491 12.3556 5.99871 12.1229C4.81251 11.8901 3.74445 11.2514 2.97818 10.3164C2.21192 9.3815 1.79531 8.20881 1.8 7C1.8 6.82761 1.73152 6.66228 1.60962 6.54038C1.48772 6.41848 1.32239 6.35 1.15 6.35C0.977609 6.35 0.812279 6.41848 0.69038 6.54038C0.568482 6.66228 0.5 6.82761 0.5 7C0.5 8.28558 0.881218 9.54228 1.59545 10.6112C2.30968 11.6801 3.32484 12.5132 4.51256 13.0052C5.70028 13.4972 7.00721 13.6259 8.26808 13.3751C9.52896 13.1243 10.6872 12.5052 11.5962 11.5962C12.5052 10.6872 13.1243 9.52896 13.3751 8.26808C13.6259 7.00721 13.4972 5.70028 13.0052 4.51256C12.5132 3.32484 11.6801 2.30968 10.6112 1.59545C9.54228 0.881218 8.28558 0.5 7 0.5ZM7 4.4C6.82761 4.4 6.66228 4.46848 6.54038 4.59038C6.41848 4.71228 6.35 4.87761 6.35 5.05V7C6.35 7.17239 6.41848 7.33772 6.54038 7.45962C6.66228 7.58152 6.82761 7.65 7 7.65H8.3C8.47239 7.65 8.63772 7.58152 8.75962 7.45962C8.88152 7.33772 8.95 7.17239 8.95 7C8.95 6.82761 8.88152 6.66228 8.75962 6.54038C8.63772 6.41848 8.47239 6.35 8.3 6.35H7.65V5.05C7.65 4.87761 7.58152 4.71228 7.45962 4.59038C7.33772 4.46848 7.17239 4.4 7 4.4Z" fill="#0A84FF"/>
</svg>
