<svg width="25" height="25" viewBox="0 0 25 25" fill="none" xmlns="http://www.w3.org/2000/svg">
<path d="M12.5001 12.5C15.851 12.5 18.5676 9.70179 18.5676 6.25001C18.5676 2.79824 15.851 0 12.5001 0C9.14904 0 6.43253 2.79824 6.43253 6.25001C6.43253 9.70179 9.14904 12.5 12.5001 12.5Z" fill="#0A84FF"/>
<path d="M0.0268865 23.2752C1.01187 18.1896 5.35714 15.1786 10.7143 15.1786C12.5001 15.1786 12.5 15.1786 14.2857 15.1786C19.6429 15.1786 24.1338 18.9416 24.9731 23.2752C25.1552 24.2155 24.3861 25 23.4552 25H1.54477C0.613939 25 -0.155232 24.2155 0.0268865 23.2752Z" fill="#0A84FF"/>
</svg>
