<svg width="26" height="25" viewBox="0 0 26 25" fill="none" xmlns="http://www.w3.org/2000/svg">
<path fill-rule="evenodd" clip-rule="evenodd" d="M13 25C19.9036 25 25.5 19.4036 25.5 12.5C25.5 5.59644 19.9036 0 13 0C6.09644 0 0.5 5.59644 0.5 12.5C0.5 19.4036 6.09644 25 13 25ZM14.25 4.375C14.25 3.68464 13.6904 3.125 13 3.125C12.3096 3.125 11.75 3.68464 11.75 4.375V5.49169C11.1555 5.61208 10.5728 5.84279 10.0639 6.22834C9.13503 6.93206 8.625 8.02077 8.625 9.375C8.625 10.0444 8.78131 10.6512 9.09708 11.1802C9.40852 11.702 9.83495 12.0812 10.2781 12.3632C11.0849 12.8766 12.1021 13.1535 12.8969 13.3698L12.9836 13.3935C13.896 13.6423 14.5521 13.833 15.0047 14.121C15.206 14.2491 15.3167 14.368 15.3813 14.4761C15.4415 14.577 15.5 14.7319 15.5 15C15.5 15.6588 15.2437 16.0422 14.878 16.2983C14.4619 16.5896 13.8147 16.7671 13.0447 16.7396C11.8576 16.6975 10.7661 16.1891 10.2506 15.5007C9.83676 14.9482 9.05334 14.8356 8.50074 15.2494C7.94815 15.6632 7.83564 16.4467 8.24944 16.9993C9.09024 18.1221 10.4102 18.8053 11.75 19.0891V20.625C11.75 21.3154 12.3096 21.875 13 21.875C13.6904 21.875 14.25 21.3154 14.25 20.625V19.1571C14.9816 19.0353 15.6961 18.7774 16.312 18.3461C17.3413 17.6253 18 16.48 18 15C18 14.3306 17.8437 13.7238 17.5279 13.1948C17.2165 12.673 16.7901 12.2938 16.3469 12.0118C15.5401 11.4984 14.5229 11.2215 13.7282 11.0052L13.6414 10.9815C12.729 10.7327 12.0729 10.542 11.6203 10.254C11.419 10.1259 11.3083 10.007 11.2437 9.89888C11.1835 9.79801 11.125 9.64312 11.125 9.375C11.125 8.69173 11.3525 8.38856 11.5736 8.22104C11.8469 8.01398 12.3137 7.868 12.9659 7.88579C14.0861 7.91609 15.2713 8.41408 15.8661 9.00888C16.3543 9.49704 17.1457 9.49704 17.6339 9.00888C18.122 8.52073 18.122 7.72927 17.6339 7.24112C16.7862 6.39346 15.5288 5.79064 14.25 5.52934V4.375Z" fill="#35537E"/>
</svg>
