<svg width="25" height="25" viewBox="0 0 25 25" fill="none" xmlns="http://www.w3.org/2000/svg">
<path fill-rule="evenodd" clip-rule="evenodd" d="M12.5 25C19.4036 25 25 19.4036 25 12.5C25 5.59644 19.4036 0 12.5 0C5.59644 0 0 5.59644 0 12.5C0 19.4036 5.59644 25 12.5 25ZM13.75 4.375C13.75 3.68464 13.1904 3.125 12.5 3.125C11.8096 3.125 11.25 3.68464 11.25 4.375V5.49169C10.6555 5.61208 10.0728 5.84279 9.56391 6.22834C8.63503 6.93206 8.125 8.02077 8.125 9.375C8.125 10.0444 8.28131 10.6512 8.59708 11.1802C8.90852 11.702 9.33495 12.0812 9.77812 12.3632C10.5849 12.8766 11.6021 13.1535 12.3969 13.3698L12.4836 13.3935C13.396 13.6423 14.0521 13.833 14.5047 14.121C14.706 14.2491 14.8167 14.368 14.8813 14.4761C14.9415 14.577 15 14.7319 15 15C15 15.6588 14.7437 16.0422 14.378 16.2983C13.9619 16.5896 13.3147 16.7671 12.5447 16.7396C11.3576 16.6975 10.2661 16.1891 9.75056 15.5007C9.33676 14.9482 8.55334 14.8356 8.00074 15.2494C7.44815 15.6632 7.33564 16.4467 7.74944 16.9993C8.59024 18.1221 9.91015 18.8053 11.25 19.0891V20.625C11.25 21.3154 11.8096 21.875 12.5 21.875C13.1904 21.875 13.75 21.3154 13.75 20.625V19.1571C14.4816 19.0353 15.1961 18.7774 15.812 18.3461C16.8413 17.6253 17.5 16.48 17.5 15C17.5 14.3306 17.3437 13.7238 17.0279 13.1948C16.7165 12.673 16.2901 12.2938 15.8469 12.0118C15.0401 11.4984 14.0229 11.2215 13.2282 11.0052L13.1414 10.9815C12.229 10.7327 11.5729 10.542 11.1203 10.254C10.919 10.1259 10.8083 10.007 10.7437 9.89888C10.6835 9.79801 10.625 9.64312 10.625 9.375C10.625 8.69173 10.8525 8.38856 11.0736 8.22104C11.3469 8.01398 11.8137 7.868 12.4659 7.88579C13.5861 7.91609 14.7713 8.41408 15.3661 9.00888C15.8543 9.49704 16.6457 9.49704 17.1339 9.00888C17.622 8.52073 17.622 7.72927 17.1339 7.24112C16.2862 6.39346 15.0288 5.79064 13.75 5.52934V4.375Z" fill="#0A84FF"/>
</svg>
