<svg width="17" height="16" viewBox="0 0 17 16" fill="none" xmlns="http://www.w3.org/2000/svg">
<path d="M8.604 0H8.396C6.3025 0.00211786 4.29535 0.834696 2.81502 2.31502C1.3347 3.79535 0.502118 5.8025 0.5 7.896L0.5 8.104C0.502118 10.1975 1.3347 12.2046 2.81502 13.685C4.29535 15.1653 6.3025 15.9979 8.396 16H8.604C10.6975 15.9979 12.7046 15.1653 14.185 13.685C15.6653 12.2046 16.4979 10.1975 16.5 8.104V7.896C16.4979 5.8025 15.6653 3.79535 14.185 2.31502C12.7046 0.834696 10.6975 0.00211786 8.604 0V0ZM10.9 7.92C10.8446 7.97609 10.7786 8.02055 10.7058 8.05077C10.6329 8.081 10.5548 8.09637 10.476 8.096C10.397 8.09778 10.3184 8.08305 10.2454 8.05274C10.1724 8.02244 10.1065 7.97723 10.052 7.92L9.1 6.968V10.472C9.1 10.6311 9.03679 10.7837 8.92426 10.8963C8.81174 11.0088 8.65913 11.072 8.5 11.072C8.34087 11.072 8.18826 11.0088 8.07574 10.8963C7.96321 10.7837 7.9 10.6311 7.9 10.472V6.968L6.948 7.92C6.89346 7.97723 6.82758 8.02244 6.75457 8.05274C6.68156 8.08305 6.60303 8.09778 6.524 8.096C6.44517 8.09637 6.36705 8.081 6.29425 8.05077C6.22144 8.02055 6.1554 7.97609 6.1 7.92C5.98764 7.8075 5.92453 7.655 5.92453 7.496C5.92453 7.337 5.98764 7.1845 6.1 7.072L8.076 5.104C8.13116 5.04739 8.19709 5.00241 8.26991 4.97169C8.34273 4.94097 8.42097 4.92514 8.5 4.92514C8.57903 4.92514 8.65727 4.94097 8.73009 4.97169C8.80291 5.00241 8.86884 5.04739 8.924 5.104L10.9 7.072C11.0124 7.1845 11.0755 7.337 11.0755 7.496C11.0755 7.655 11.0124 7.8075 10.9 7.92Z" fill="white"/>
</svg>
