<svg width="15" height="16" viewBox="0 0 15 16" fill="none" xmlns="http://www.w3.org/2000/svg">
<path d="M3.5 10.2864C4.73949 10.2864 5.65 9.20833 5.65 8C5.65 6.79167 4.73949 5.71364 3.5 5.71364C2.26051 5.71364 1.35 6.79167 1.35 8C1.35 9.20833 2.26051 10.2864 3.5 10.2864ZM11.5 5.92273C12.7395 5.92273 13.65 4.84469 13.65 3.63636C13.65 2.42804 12.7395 1.35 11.5 1.35C10.2605 1.35 9.35 2.42804 9.35 3.63636C9.35 4.84469 10.2605 5.92273 11.5 5.92273ZM11.5 14.65C12.7395 14.65 13.65 13.572 13.65 12.3636C13.65 11.1553 12.7395 10.0773 11.5 10.0773C10.2605 10.0773 9.35 11.1553 9.35 12.3636C9.35 13.572 10.2605 14.65 11.5 14.65Z" stroke="#0A84FF" stroke-width="1.3"/>
</svg>
