<svg width="24" height="22" viewBox="0 0 24 22" fill="none" xmlns="http://www.w3.org/2000/svg">
<path d="M5.16757 22C4.97204 22 4.77652 21.9425 4.61252 21.8275C4.32239 21.6247 4.17416 21.2796 4.23724 20.9406L5.45771 14.1087L0.285687 9.26857C0.0270859 9.02642 -0.0643706 8.66621 0.0460079 8.33627C0.156386 8.00633 0.452831 7.7672 0.809196 7.71877L7.95542 6.72289L11.1532 0.505504C11.3141 0.196753 11.6421 0 12.0016 0C12.3611 0 12.6891 0.196753 12.8499 0.505504L16.0446 6.72289L23.1908 7.71877C23.5472 7.7672 23.8436 8.00936 23.954 8.33627C24.0644 8.66621 23.9729 9.02642 23.7143 9.26857L18.5423 14.1057L19.7628 20.9375C19.8227 21.2796 19.6776 21.6216 19.3875 21.8244C19.2235 21.9395 19.028 21.997 18.8324 21.997C18.6811 21.997 18.5297 21.9637 18.3909 21.8941L11.9984 18.6673L5.60593 21.8941C5.46717 21.9637 5.31579 21.997 5.16442 21.997L5.16757 22Z" fill="#0A84FF"/>
</svg>
