<svg width="27" height="25" viewBox="0 0 27 25" fill="none" xmlns="http://www.w3.org/2000/svg">
<path fill-rule="evenodd" clip-rule="evenodd" d="M20.25 13.5385C23.9779 13.5385 27 10.5078 27 6.76923C27 3.03069 23.9779 0 20.25 0C16.5221 0 13.5 3.03069 13.5 6.76923C13.5 10.5078 16.5221 13.5385 20.25 13.5385ZM21.017 3.69231C21.017 3.26747 20.6736 2.92308 20.25 2.92308C19.8264 2.92308 19.483 3.26747 19.483 3.69231V7.98907L17.7242 6.2253C17.4247 5.9249 16.939 5.9249 16.6394 6.2253C16.3399 6.52571 16.3399 7.01276 16.6394 7.31316L19.7076 10.3901C20.0072 10.6905 20.4928 10.6905 20.7924 10.3901L23.8606 7.31316C24.1601 7.01276 24.1601 6.52571 23.8606 6.2253C23.561 5.9249 23.0753 5.9249 22.7758 6.2253L21.017 7.98907V3.69231Z" fill="#0A84FF"/>
<path d="M11.8568 4.92308H2.71074C1.99272 4.92593 1.30496 5.20092 0.797242 5.68816C0.289523 6.1754 0.00297319 6.83542 0 7.52448V21.3986C0.00297319 22.0877 0.289523 22.7477 0.797242 23.2349C1.30496 23.7222 1.99272 23.9971 2.71074 24H20.7823C21.2616 24 21.7213 23.8173 22.0602 23.492C22.3991 23.1668 22.5895 22.7257 22.5895 22.2657V15.0613C21.8457 15.2719 21.061 15.3846 20.25 15.3846C16.0584 15.3846 12.5679 12.3741 11.8112 8.39161H2.71074C2.47109 8.39161 2.24127 8.30025 2.07181 8.13763C1.90236 7.97501 1.80716 7.75445 1.80716 7.52448C1.80716 7.2945 1.90236 7.07394 2.07181 6.91132C2.24127 6.7487 2.47109 6.65734 2.71074 6.65734H11.6598C11.6673 6.0628 11.7349 5.48277 11.8568 4.92308Z" fill="#0A84FF"/>
</svg>
