<svg width="28" height="25" viewBox="0 0 28 25" fill="none" xmlns="http://www.w3.org/2000/svg">
<path fill-rule="evenodd" clip-rule="evenodd" d="M20.75 13.5385C24.4779 13.5385 27.5 10.5078 27.5 6.76923C27.5 3.03069 24.4779 0 20.75 0C17.0221 0 14 3.03069 14 6.76923C14 10.5078 17.0221 13.5385 20.75 13.5385ZM21.517 3.69231C21.517 3.26747 21.1736 2.92308 20.75 2.92308C20.3264 2.92308 19.983 3.26747 19.983 3.69231V7.98907L18.2242 6.2253C17.9247 5.9249 17.439 5.9249 17.1394 6.2253C16.8399 6.52571 16.8399 7.01276 17.1394 7.31316L20.2076 10.3901C20.5072 10.6905 20.9928 10.6905 21.2924 10.3901L24.3606 7.31316C24.6601 7.01276 24.6601 6.52571 24.3606 6.2253C24.061 5.9249 23.5753 5.9249 23.2758 6.2253L21.517 7.98907V3.69231Z" fill="#35537E"/>
<path d="M12.3568 4.92308H3.21074C2.49272 4.92593 1.80496 5.20092 1.29724 5.68816C0.789523 6.1754 0.502973 6.83542 0.5 7.52448V21.3986C0.502973 22.0877 0.789523 22.7477 1.29724 23.2349C1.80496 23.7222 2.49272 23.9971 3.21074 24H21.2823C21.7616 24 22.2213 23.8173 22.5602 23.492C22.8991 23.1668 23.0895 22.7257 23.0895 22.2657V15.0613C22.3457 15.2719 21.561 15.3846 20.75 15.3846C16.5584 15.3846 13.0679 12.3741 12.3112 8.39161H3.21074C2.97109 8.39161 2.74127 8.30025 2.57181 8.13763C2.40236 7.97501 2.30716 7.75445 2.30716 7.52448C2.30716 7.2945 2.40236 7.07394 2.57181 6.91132C2.74127 6.7487 2.97109 6.65734 3.21074 6.65734H12.1598C12.1673 6.0628 12.2349 5.48277 12.3568 4.92308Z" fill="#35537E"/>
</svg>
